<svg xmlns="http://www.w3.org/2000/svg" viewBox="0 0 108 108" role="img" aria-labelledby="title desc">
  <title id="title">PassingTrace 痕迹日历图标</title>
  <desc id="desc">标记着一个重要日子的日历</desc>
  <rect x="3" y="3" width="102" height="102" rx="28" fill="#D97856"/>
  <rect x="22" y="22" width="64" height="66" rx="12" fill="#FFF6E8"/>
  <path d="M22 34 C22 27 27 22 34 22 H74 C81 22 86 27 86 34 V42 H22 Z" fill="#2F6B57"/>
  <rect x="33" y="17" width="8" height="18" rx="4" fill="#A8CCBA"/>
  <rect x="67" y="17" width="8" height="18" rx="4" fill="#A8CCBA"/>
  <rect x="33" y="51" width="11" height="11" rx="3" fill="#A8CCBA"/>
  <rect x="49" y="51" width="11" height="11" rx="3" fill="#A8CCBA"/>
  <rect x="65" y="51" width="11" height="11" rx="3" fill="#A8CCBA"/>
  <rect x="33" y="67" width="11" height="11" rx="3" fill="#A8CCBA"/>
  <circle cx="55" cy="72" r="9" fill="#E28A62"/>
  <path d="M51 72 L54 75 L60 68 L64 72 L54 82 L47 76 Z" fill="#FFF6E8"/>
</svg>
